<?xml version="1.0" standalone="no"?>
<!DOCTYPE svg PUBLIC "-//W3C//DTD SVG 20010904//EN"
 "http://www.w3.org/TR/2001/REC-SVG-20010904/DTD/svg10.dtd">
<svg version="1.0" xmlns="http://www.w3.org/2000/svg"
 width="1024.000000pt" height="1024.000000pt" viewBox="0 0 1024.000000 1024.000000"
 preserveAspectRatio="xMidYMid meet">
<metadata>
Created by potrace 1.11, written by Peter Selinger 2001-2013
</metadata>
<g transform="translate(0.000000,1024.000000) scale(0.100000,-0.100000)"
fill="#000000" stroke="none">
<path d="M3509 10236 c-2 -2 -101 -7 -219 -10 -118 -3 -237 -8 -265 -11 -27
-2 -97 -7 -155 -10 -58 -4 -118 -8 -134 -10 -16 -2 -59 -6 -95 -10 -75 -7
-107 -11 -238 -31 -39 -5 -237 -43 -263 -49 -8 -2 -30 -8 -47 -14 -18 -5 -33
-8 -33 -6 0 2 -66 -18 -147 -46 -367 -124 -735 -359 -1038 -663 -142 -143
-165 -169 -240 -266 -28 -36 -53 -67 -56 -70 -5 -5 -116 -168 -134 -198 -5 -9
-17 -28 -26 -42 -45 -70 -151 -288 -187 -385 -53 -144 -98 -302 -118 -415 -3
-14 -11 -61 -19 -105 -17 -96 -42 -291 -50 -395 -3 -41 -7 -100 -10 -130 -26
-289 -30 -612 -30 -2245 0 -1428 4 -1868 20 -2110 2 -33 6 -100 10 -150 3 -49
7 -108 10 -130 3 -22 7 -60 9 -85 14 -137 20 -177 42 -305 13 -77 30 -165 39
-197 8 -31 16 -68 19 -83 13 -73 91 -286 147 -403 221 -459 581 -872 1013
-1160 147 -98 188 -122 342 -197 208 -101 476 -180 749 -220 119 -17 177 -25
245 -31 41 -3 82 -8 91 -9 9 -2 67 -6 130 -10 63 -4 132 -8 154 -10 166 -15
716 -20 2110 -20 1391 0 1845 4 2080 20 28 1 98 6 156 9 58 4 117 9 130 11 13
2 56 6 94 10 39 3 104 10 145 16 41 6 84 12 95 14 47 6 157 27 240 46 50 12
99 23 109 25 23 4 143 42 171 54 11 4 43 16 70 25 46 16 285 130 330 158 191
119 336 220 450 317 45 38 277 270 316 315 184 216 368 507 462 732 40 96 111
324 132 428 12 58 44 241 49 280 19 140 26 207 41 395 25 303 30 676 30 2255
0 1364 -5 1912 -19 2105 -2 25 -7 94 -11 153 -3 60 -8 116 -10 125 -1 10 -6
53 -9 97 -4 44 -9 87 -11 95 -2 8 -6 39 -9 68 -3 29 -8 63 -11 75 -2 12 -7 38
-9 57 -23 158 -90 409 -152 565 -75 191 -293 555 -409 681 -5 7 -26 31 -45 55
-59 75 -291 303 -383 377 -256 208 -541 371 -800 461 -235 81 -555 143 -857
166 -41 3 -100 8 -130 10 -30 3 -107 7 -170 10 -63 4 -149 9 -190 11 -80 6
-3495 15 -3501 10z"/>
</g>
</svg>
