<?xml version="1.0" standalone="no"?>
<!DOCTYPE svg PUBLIC "-//W3C//DTD SVG 20010904//EN"
 "http://www.w3.org/TR/2001/REC-SVG-20010904/DTD/svg10.dtd">
<svg version="1.0" xmlns="http://www.w3.org/2000/svg"
 width="1024.000000pt" height="1024.000000pt" viewBox="0 0 1024.000000 1024.000000"
 preserveAspectRatio="xMidYMid meet">
<metadata>
Created by potrace 1.11, written by Peter Selinger 2001-2013
</metadata>
<g transform="translate(0.000000,1024.000000) scale(0.100000,-0.100000)"
fill="#000000" stroke="none">
<path d="M3820 10234 c-1520 -29 -2123 -173 -2709 -644 -353 -284 -654 -666
-805 -1021 -172 -406 -248 -855 -288 -1709 -18 -386 -18 -3094 0 -3480 41
-871 122 -1340 302 -1739 251 -557 802 -1101 1351 -1335 406 -172 854 -248
1709 -288 386 -18 3094 -18 3480 0 873 41 1339 122 1742 304 408 183 813 530
1101 941 343 489 466 993 519 2117 18 386 18 3094 0 3480 -46 982 -146 1473
-388 1910 -268 485 -783 959 -1265 1164 -400 170 -847 246 -1679 287 -196 10
-2696 20 -3070 13z m330 -2484 l0 -440 -450 0 -450 0 0 440 0 440 450 0 450 0
0 -440z m2420 -870 c780 -59 1250 -436 1372 -1100 20 -108 22 -159 27 -820 l6
-705 25 -45 c30 -54 87 -88 159 -97 l51 -6 0 -378 0 -378 -52 -10 c-98 -18
-126 -22 -254 -31 -287 -20 -479 42 -588 190 -59 79 -85 154 -98 270 -5 52
-11 101 -13 107 -3 7 -64 -47 -137 -120 -246 -246 -516 -388 -858 -449 -154
-27 -414 -30 -550 -5 -306 57 -571 212 -741 436 -64 85 -152 263 -180 366 -31
114 -38 359 -14 476 59 295 253 544 550 709 264 146 562 214 935 213 319 0
615 -50 833 -138 16 -7 17 4 17 149 0 196 -16 281 -75 402 -76 155 -211 262
-394 313 -205 57 -490 49 -741 -20 -165 -46 -381 -147 -579 -271 -51 -32 -94
-58 -95 -56 -1 2 -63 129 -138 282 l-136 280 67 42 c483 300 1036 436 1601
394z m-2425 -1885 c0 -1699 -1 -1837 -17 -1922 -49 -259 -157 -477 -318 -647
-248 -260 -583 -390 -959 -373 -304 13 -606 121 -783 279 l-38 33 184 288
c101 159 188 293 193 298 6 6 34 -7 77 -36 97 -65 186 -90 316 -90 79 0 118 5
156 19 122 45 232 156 269 271 19 58 20 100 20 1615 1 855 2 1675 3 1822 l2
268 268 2 c147 2 348 3 447 3 l180 0 0 -1830z"/>
<path d="M6210 4999 c-299 -37 -535 -183 -612 -379 -29 -76 -35 -206 -14 -290
45 -175 210 -324 416 -376 51 -13 97 -15 220 -11 183 5 302 32 445 100 109 51
174 99 286 208 117 115 119 121 119 404 l0 222 -67 21 c-283 88 -587 127 -793
101z"/>
</g>
</svg>
