<?xml version="1.0" standalone="no"?>
<!DOCTYPE svg PUBLIC "-//W3C//DTD SVG 20010904//EN"
 "http://www.w3.org/TR/2001/REC-SVG-20010904/DTD/svg10.dtd">
<svg version="1.0" xmlns="http://www.w3.org/2000/svg"
 width="1024.000000pt" height="1024.000000pt" viewBox="0 0 1024.000000 1024.000000"
 preserveAspectRatio="xMidYMid meet">
<metadata>
Created by potrace 1.11, written by Peter Selinger 2001-2013
</metadata>
<g transform="translate(0.000000,1024.000000) scale(0.100000,-0.100000)"
fill="#000000" stroke="none">
<path d="M2729 10236 c-2 -2 -85 -7 -184 -11 -99 -3 -198 -8 -220 -10 -22 -2
-76 -6 -120 -10 -117 -10 -238 -23 -280 -31 -11 -2 -36 -7 -55 -10 -363 -60
-667 -194 -955 -420 -261 -205 -441 -412 -604 -696 -98 -171 -155 -317 -205
-528 -27 -114 -30 -133 -51 -290 -48 -365 -50 -511 -50 -3115 0 -2054 4 -2558
19 -2785 6 -81 17 -204 21 -230 2 -14 6 -52 10 -85 11 -100 47 -298 65 -360 5
-16 19 -61 30 -100 12 -38 25 -79 30 -90 5 -11 17 -40 27 -65 143 -357 473
-752 828 -991 104 -70 292 -179 308 -179 4 0 30 -11 59 -24 51 -22 193 -72
234 -81 10 -2 62 -13 114 -25 52 -12 107 -23 121 -25 14 -2 61 -8 105 -14 124
-18 134 -19 226 -26 48 -4 100 -8 115 -10 124 -16 732 -20 2798 -20 2089 0
2649 4 2810 20 22 2 69 6 105 9 163 13 458 58 530 81 10 3 27 8 37 10 35 7
188 57 233 76 168 72 373 196 520 313 79 63 282 261 340 331 244 293 401 620
465 970 9 54 24 149 30 195 3 25 7 63 10 85 3 22 8 74 11 115 3 41 7 93 9 115
16 161 20 720 20 2800 0 2118 -3 2563 -20 2795 -8 112 -21 243 -30 305 -2 17
-7 53 -11 80 -23 188 -96 446 -167 595 -196 410 -515 762 -902 996 -241 145
-519 243 -795 279 -25 3 -61 8 -80 10 -19 3 -62 8 -95 11 -33 4 -73 8 -90 10
-16 1 -77 6 -135 9 -58 3 -141 9 -185 12 -85 6 -4990 15 -4996 9z"/>
</g>
</svg>
